<svg xmlns="http://www.w3.org/2000/svg" viewBox="0 0 1200 680" role="img" aria-labelledby="title desc"><title id="title">RPA 固定航線與 AI Agent 動態迴圈 / RPA vs AI agent</title><desc id="desc">RPA 依序執行，AI Agent 在觀察、決定、行動與檢查間循環。</desc><rect width="1200" height="680" fill="#f7f3e8"/><path d="M0 590c170-75 330 70 510 0s350 65 690-20v110H0z" fill="#dcebe2"/><g font-family="Arial,'Noto Sans TC',sans-serif"><text x="300" y="75" text-anchor="middle" fill="#173c36" font-size="29" font-weight="700">RPA｜照航線行駛</text><text x="300" y="105" text-anchor="middle" fill="#66736f" font-size="15">FOLLOWS A FIXED ROUTE</text><text x="900" y="75" text-anchor="middle" fill="#173c36" font-size="29" font-weight="700">AI AGENT｜看海象調整</text><text x="900" y="105" text-anchor="middle" fill="#66736f" font-size="15">ADAPTS TO CONDITIONS</text><g fill="#fff" stroke="#173c36" stroke-width="3"><rect x="90" y="220" width="125" height="90" rx="8"/><rect x="245" y="220" width="125" height="90" rx="8"/><rect x="400" y="220" width="125" height="90" rx="8"/></g><g fill="#173c36" text-anchor="middle"><text x="152" y="260" font-size="18">下載</text><text x="152" y="284" font-size="13">DOWNLOAD</text><text x="307" y="260" font-size="18">擷取</text><text x="307" y="284" font-size="13">EXTRACT</text><text x="462" y="260" font-size="18">比對</text><text x="462" y="284" font-size="13">COMPARE</text></g><path d="M215 265h30m125 0h30" stroke="#df714c" stroke-width="5"/><g fill="#fff" stroke="#173c36" stroke-width="3"><circle cx="900" cy="220" r="72"/><circle cx="1025" cy="360" r="72"/><circle cx="900" cy="500" r="72"/><circle cx="775" cy="360" r="72"/></g><g fill="#173c36" text-anchor="middle"><text x="900" y="216" font-size="18">觀察</text><text x="900" y="240" font-size="13">OBSERVE</text><text x="1025" y="356" font-size="18">決定</text><text x="1025" y="380" font-size="13">DECIDE</text><text x="900" y="496" font-size="18">行動</text><text x="900" y="520" font-size="13">ACT</text><text x="775" y="356" font-size="18">檢查</text><text x="775" y="380" font-size="13">CHECK</text></g><path d="M954 263c37 15 52 31 60 48m-31 100c-13 28-30 44-51 55m-87 0c-27-13-44-30-55-54m0-104c13-26 29-42 55-53" fill="none" stroke="#df714c" stroke-width="5" stroke-dasharray="8 8"/><text x="300" y="410" text-anchor="middle" fill="#66736f" font-size="17">規則穩定時，快速又可靠</text><text x="300" y="437" text-anchor="middle" fill="#66736f" font-size="13">FAST AND RELIABLE WHEN RULES ARE STABLE</text><text x="900" y="610" text-anchor="middle" fill="#66736f" font-size="17">遇到例外，選工具、改路線或找人</text><text x="900" y="637" text-anchor="middle" fill="#66736f" font-size="13">CHOOSE TOOLS, CHANGE COURSE, OR ASK A HUMAN</text></g></svg>
