<svg xmlns="http://www.w3.org/2000/svg" viewBox="0 0 1200 680" role="img" aria-labelledby="title desc">
  <title id="title">稽核第二大腦知識航海圖</title><desc id="desc">案件線索經過擷取、組織、萃取、表達，形成可以搜尋與複用的知識系統。</desc>
  <rect width="1200" height="680" fill="#f7f3e8"/><path d="M0 570 C180 520 250 650 430 590 S730 520 900 590 1080 620 1200 560V680H0Z" fill="#dcebe2"/>
  <g fill="none" stroke="#173c36" stroke-width="3"><path stroke-dasharray="9 12" d="M170 205C300 120 365 335 505 235S735 170 838 292 1000 370 1050 250"/><circle cx="169" cy="205" r="92"/><rect x="430" y="157" width="250" height="162" rx="8"/><path d="M457 190h196M457 225h155M457 260h180"/><path d="M865 175h200v212H865zM890 215h150M890 255h150M890 295h112M890 335h125"/></g>
  <g font-family="Noto Sans TC,Microsoft JhengHei,sans-serif" fill="#173c36"><text x="169" y="190" text-anchor="middle" font-size="21" font-weight="700">案件線索</text><text x="169" y="222" text-anchor="middle" font-size="15">判斷 · 疑問 · 方法</text><text x="555" y="130" text-anchor="middle" font-size="16" fill="#df714c" font-weight="700">CODE</text><text x="555" y="355" text-anchor="middle" font-size="15">擷取 → 組織 → 萃取 → 表達</text><text x="965" y="145" text-anchor="middle" font-size="16" fill="#df714c" font-weight="700">SECOND BRAIN</text><text x="965" y="430" text-anchor="middle" font-size="15">可搜尋 · 可複用 · 可傳承</text><text x="600" y="620" text-anchor="middle" font-size="26" font-weight="700">把經驗畫成下一次找得到的航線</text></g>
  <g fill="#df714c"><circle cx="169" cy="205" r="8"/><circle cx="505" cy="235" r="8"/><path d="M1042 231l18 19-20 17z"/></g>
</svg>
