<svg xmlns="http://www.w3.org/2000/svg" viewBox="0 0 1200 675" role="img" aria-labelledby="title desc">
  <title id="title">演算法稽核生命週期</title><desc id="desc">從治理、資料、模型、決策到持續監控的查核流程</desc>
  <rect width="1200" height="675" fill="#f7f3e8"/><text x="80" y="88" font-family="Arial,'Noto Sans TC',sans-serif" font-size="25" font-weight="700" fill="#df714c">AI × AUDIT · DAY 02</text><text x="80" y="138" font-family="Arial,'Noto Serif TC',serif" font-size="42" font-weight="700" fill="#173c36">從憑證往回追，找到決策的形成過程</text>
  <path d="M180 330H1020" stroke="#93aa9f" stroke-width="5"/><path d="M995 308l30 22-30 22" fill="none" stroke="#93aa9f" stroke-width="5"/>
  <g font-family="Arial,'Noto Sans TC',sans-serif" text-anchor="middle"><circle cx="180" cy="330" r="78" fill="#173c36"/><text x="180" y="322" font-size="23" font-weight="700" fill="#fff">治理</text><text x="180" y="354" font-size="16" fill="#c9ded4">目的與責任</text><circle cx="390" cy="330" r="78" fill="#3f7165"/><text x="390" y="322" font-size="23" font-weight="700" fill="#fff">資料</text><text x="390" y="354" font-size="16" fill="#e5f0eb">來源與品質</text><circle cx="600" cy="330" r="78" fill="#df714c"/><text x="600" y="322" font-size="23" font-weight="700" fill="#fff">模型</text><text x="600" y="354" font-size="16" fill="#fff2eb">驗證與版本</text><circle cx="810" cy="330" r="78" fill="#3f7165"/><text x="810" y="322" font-size="23" font-weight="700" fill="#fff">決策</text><text x="810" y="354" font-size="16" fill="#e5f0eb">人工覆核</text><circle cx="1020" cy="330" r="78" fill="#173c36"/><text x="1020" y="322" font-size="23" font-weight="700" fill="#fff">監控</text><text x="1020" y="354" font-size="16" fill="#c9ded4">漂移與補救</text></g>
  <path d="M1020 440C900 590 300 590 180 440" fill="none" stroke="#df714c" stroke-width="4" stroke-dasharray="10 9"/><path d="M196 458l-20-20-7 29" fill="none" stroke="#df714c" stroke-width="4"/><text x="600" y="555" text-anchor="middle" font-family="Arial,'Noto Sans TC',sans-serif" font-size="20" font-weight="700" fill="#df714c">監控結果回饋治理，形成持續改善循環</text>
</svg>
