<svg xmlns="http://www.w3.org/2000/svg" viewBox="0 0 1200 675" role="img" aria-labelledby="title desc"><title id="title">演算法稽核生命週期 / Algorithm audit lifecycle</title><desc id="desc">治理、資料、模型、決策與監控的雙語流程。</desc><rect width="1200" height="675" fill="#f7f3e8"/><g font-family="Arial,'Noto Sans TC',sans-serif"><text x="80" y="75" font-size="25" font-weight="700" fill="#df714c">AI × AUDIT · DAY 02</text><text x="80" y="120" font-size="38" font-weight="700" fill="#173c36">從憑證往回追，找到決策的形成過程</text><text x="80" y="153" font-size="19" fill="#66736f">TRACE THE EVIDENCE BACK TO HOW THE DECISION WAS MADE.</text><path d="M180 335H1020" stroke="#93aa9f" stroke-width="5"/><path d="M995 313l30 22-30 22" fill="none" stroke="#93aa9f" stroke-width="5"/><g text-anchor="middle"><circle cx="180" cy="335" r="82" fill="#173c36"/><text x="180" y="320" font-size="22" font-weight="700" fill="#fff">治理</text><text x="180" y="345" font-size="14" fill="#fff">GOVERNANCE</text><text x="180" y="370" font-size="14" fill="#c9ded4">目的與責任</text><circle cx="390" cy="335" r="82" fill="#3f7165"/><text x="390" y="320" font-size="22" font-weight="700" fill="#fff">資料</text><text x="390" y="345" font-size="14" fill="#fff">DATA</text><text x="390" y="370" font-size="14" fill="#e5f0eb">來源與品質</text><circle cx="600" cy="335" r="82" fill="#df714c"/><text x="600" y="320" font-size="22" font-weight="700" fill="#fff">模型</text><text x="600" y="345" font-size="14" fill="#fff">MODEL</text><text x="600" y="370" font-size="14" fill="#fff2eb">驗證與版本</text><circle cx="810" cy="335" r="82" fill="#3f7165"/><text x="810" y="320" font-size="22" font-weight="700" fill="#fff">決策</text><text x="810" y="345" font-size="14" fill="#fff">DECISION</text><text x="810" y="370" font-size="14" fill="#e5f0eb">人工覆核</text><circle cx="1020" cy="335" r="82" fill="#173c36"/><text x="1020" y="320" font-size="22" font-weight="700" fill="#fff">監控</text><text x="1020" y="345" font-size="14" fill="#fff">MONITOR</text><text x="1020" y="370" font-size="14" fill="#c9ded4">漂移與補救</text></g><path d="M1020 455C900 590 300 590 180 455" fill="none" stroke="#df714c" stroke-width="4" stroke-dasharray="10 9"/><text x="600" y="558" text-anchor="middle" font-size="19" font-weight="700" fill="#df714c">監控回饋治理 · MONITORING FEEDS CONTINUOUS IMPROVEMENT</text></g></svg>
